<svg width="1280" height="640" viewBox="0 0 1280 640" fill="none" xmlns="http://www.w3.org/2000/svg" shape-rendering="crispEdges">
  <rect width="1280" height="640" fill="#08090B"/>
  <rect x="0.5" y="0.5" width="1279" height="639" stroke="#1C1D21"/>
  <rect x="0" y="0" width="1280" height="5" fill="#9B7A35"/>
  <g transform="translate(124 172)">
    <rect width="296" height="296" rx="58" fill="#0B0B0D"/>
    <rect x="1" y="1" width="294" height="294" rx="57" stroke="#2A2A2E" stroke-width="2"/>
    <g transform="translate(60 60) scale(0.88)">
      <rect x="75" y="75" width="50" height="50" fill="#F3F1EF"/>
      <rect x="87.67" y="5" width="24.67" height="24.67" fill="#F3F1EF"/>
      <rect x="129" y="46.33" width="24.67" height="24.67" fill="#F3F1EF"/>
      <rect x="170.33" y="87.67" width="24.67" height="24.67" fill="#F3F1EF"/>
      <rect x="129" y="129" width="24.67" height="24.67" fill="#F3F1EF"/>
      <rect x="87.67" y="170.33" width="24.67" height="24.67" fill="#F3F1EF"/>
      <rect x="46.33" y="129" width="24.67" height="24.67" fill="#F3F1EF"/>
      <rect x="5" y="87.67" width="24.67" height="24.67" fill="#F3F1EF"/>
      <rect x="46.33" y="46.33" width="24.67" height="24.67" fill="#F3F1EF"/>
    </g>
  </g>
  <text x="500" y="268" fill="#F7F5F1" font-family="Inter, ui-sans-serif, system-ui, -apple-system, BlinkMacSystemFont, Segoe UI, sans-serif" font-size="84" font-weight="760" letter-spacing="0">Proliferate</text>
  <text x="505" y="340" fill="#D9D4CC" font-family="Inter, ui-sans-serif, system-ui, -apple-system, BlinkMacSystemFont, Segoe UI, sans-serif" font-size="34" font-weight="520" letter-spacing="0">The Local and Cloud Agent IDE</text>
  <text x="505" y="396" fill="#A9A39A" font-family="Inter, ui-sans-serif, system-ui, -apple-system, BlinkMacSystemFont, Segoe UI, sans-serif" font-size="30" font-weight="450" letter-spacing="0">Any agent. Any surface. Local or cloud.</text>
</svg>
