<?xml version="1.0" encoding="utf-8"?>
<!-- Generator: Adobe Illustrator 24.1.1, SVG Export Plug-In . SVG Version: 6.00 Build 0)  -->
<svg version="1.1" id="Layer_1" xmlns="http://www.w3.org/2000/svg" xmlns:xlink="http://www.w3.org/1999/xlink" x="0px" y="0px"
	 viewBox="0 0 512 512" style="enable-background:new 0 0 512 512;" xml:space="preserve">
<g>
	<path d="M504.8,460.1c9.6-15.9,9.6-31.9,0-47.8L297.4,51.8c-9.5-15.9-25.5-22.3-41.4-22.3s-31.9,9.6-41.4,22.3l-67.1,118.1l16,9.5
		c51.1,28.7,92.5,70.2,121.3,121.3c25.5,44.7,41.4,92.5,44.7,143.6h-47.9c-3.1-41.5-15.9-83-38.2-121.2
		c-22.3-44.7-57.4-79.8-102.1-105.3l-16-9.5L61.4,316.7l15.9,9.5c41.5,25.5,70.2,67,76.6,114.9H48.7c-3.1,0-6.4-3.3-6.4-3.3
		s-3.2-3.1,0-6.3L71,380.4c-9.6-9.5-22.3-15.9-35.1-19.1l-28.7,51c-9.6,16-9.6,31.9,0,47.9c9.6,15.9,22.3,22.3,41.4,22.3h146.7
		v-19.1c0-35.1-9.5-67-25.5-98.9c-12.8-25.5-31.9-44.7-54.2-60.6l22.3-41.5c28.7,22.3,54.3,47.8,73.3,79.7
		c22.3,38.2,31.9,79.7,31.9,121.3v19.1h124.4v-19.1c0-63.8-16-127.7-51.1-185.1c-25.5-51.1-67-92.5-114.8-124.4L249.6,71
		c3.3-3.1,6.4-3.1,6.4-3.1c3.2,0,3.2,0,6.4,3.1l207.3,360.4c3.2,3.2,0,6.4,0,6.4s-3.2,3.2-6.4,3.2h-47.8v38.3h47.8
		C482.5,482.5,495.3,476.1,504.8,460.1L504.8,460.1z"/>
</g>
</svg>
