<svg xmlns="http://www.w3.org/2000/svg" viewBox="0 -3 162 32" width="162" height="32" fill="#f5f5f5">
  <g transform="translate(0.1287128712871287 0.1287128712871287) scale(0.14795)"><path fill-rule="evenodd" d="M 76 11.500 L 76 23 86.855 23 L 97.711 23 98.348 16.250 C 98.699 12.537, 98.989 7.362, 98.993 4.750 L 99 0 87.500 0 L 76 0 76 11.500 M 38 49.500 L 38 61 48.893 61 C 57.904 61, 59.891 60.727, 60.393 59.418 C 60.727 58.548, 61 53.373, 61 47.918 L 61 38 49.500 38 L 38 38 38 49.500 M 114 49.500 L 114 61 125 61 L 136 61 136 49.500 L 136 38 125 38 L 114 38 114 49.500 M 64 87 L 64 110 87 110 L 110 110 110 87 L 110 64 87 64 L 64 64 64 87 M 0 87.533 L 0 99.066 11.250 98.783 L 22.500 98.500 22.783 87.250 L 23.066 76 11.533 76 L 0 76 0 87.533 M 151.446 77.088 C 151.076 77.687, 151.092 82.862, 151.483 88.588 L 152.192 99 163.096 99 L 174 99 174 87.500 L 174 76 163.059 76 C 156.253 76, 151.864 76.411, 151.446 77.088 M 38 125.263 L 38 136.526 49 136.591 L 60 136.657 60.200 132.578 C 60.310 130.335, 60.422 125.240, 60.450 121.255 L 60.500 114.011 49.250 114.005 L 38 114 38 125.263 M 113.999 125.250 L 113.999 136.500 124.996 136.500 L 135.994 136.500 135.997 125.250 L 136 114 125 114 L 114 114 113.999 125.250 M 76 163 L 76 174 86.893 174 C 95.904 174, 97.891 173.727, 98.393 172.418 C 98.727 171.548, 99 166.598, 99 161.418 L 99 152 87.500 152 L 76 152 76 163"/></g>
  <path d="M47.59 9.37Q47.59 10.75 46.94 11.97Q46.29 13.19 44.86 13.96Q43.43 14.73 41.19 14.73L37.91 14.73L37.91 22.06L34.95 22.06L34.95 3.99L41.19 3.99Q43.27 3.99 44.71 4.71Q46.16 5.42 46.87 6.64Q47.59 7.86 47.59 9.37M41.19 12.31Q42.88 12.31 43.71 11.54Q44.54 10.78 44.54 9.37Q44.54 6.41 41.19 6.41L37.91 6.41L37.91 12.31L41.19 12.31M52.86 9.81Q53.51 8.72 54.59 8.11Q55.67 7.50 57.15 7.50L57.15 10.57L56.40 10.57Q54.66 10.57 53.76 11.45Q52.86 12.34 52.86 14.52L52.86 22.06L49.90 22.06L49.90 7.73L52.86 7.73L52.86 9.81M65.58 22.30Q63.55 22.30 61.91 21.37Q60.27 20.45 59.34 18.77Q58.40 17.09 58.40 14.88Q58.40 12.70 59.36 11.01Q60.33 9.32 61.99 8.41Q63.65 7.50 65.71 7.50Q67.76 7.50 69.43 8.41Q71.09 9.32 72.05 11.01Q73.01 12.70 73.01 14.88Q73.01 17.07 72.03 18.76Q71.04 20.45 69.33 21.37Q67.63 22.30 65.58 22.30M65.58 19.72Q66.72 19.72 67.72 19.18Q68.72 18.63 69.35 17.54Q69.97 16.45 69.97 14.88Q69.97 13.32 69.37 12.25Q68.78 11.17 67.79 10.62Q66.80 10.07 65.66 10.07Q64.51 10.07 63.54 10.62Q62.56 11.17 61.99 12.25Q61.42 13.32 61.42 14.88Q61.42 17.20 62.60 18.46Q63.78 19.72 65.58 19.72M75.43 2.82L78.40 2.82L78.40 22.06L75.43 22.06L75.43 2.82M83.28 5.84Q82.48 5.84 81.93 5.29Q81.39 4.74 81.39 3.94Q81.39 3.13 81.93 2.59Q82.48 2.04 83.28 2.04Q84.06 2.04 84.61 2.59Q85.16 3.13 85.16 3.94Q85.16 4.74 84.61 5.29Q84.06 5.84 83.28 5.84M81.78 7.73L84.74 7.73L84.74 22.06L81.78 22.06L81.78 7.73M94.13 7.73L94.13 10.15L91.47 10.15L91.47 22.06L88.48 22.06L88.48 10.15L86.79 10.15L86.79 7.73L88.48 7.73L88.48 6.72Q88.48 4.25 89.80 3.12Q91.11 1.99 93.92 1.99L93.92 4.46Q92.57 4.46 92.02 4.97Q91.47 5.47 91.47 6.72L91.47 7.73L94.13 7.73M109.36 14.55Q109.36 15.35 109.26 16L98.31 16Q98.44 17.72 99.59 18.76Q100.73 19.80 102.39 19.80Q104.79 19.80 105.77 17.80L108.97 17.80Q108.32 19.77 106.62 21.03Q104.92 22.30 102.39 22.30Q100.34 22.30 98.72 21.37Q97.09 20.45 96.17 18.77Q95.24 17.09 95.24 14.88Q95.24 12.67 96.14 11Q97.04 9.32 98.66 8.41Q100.29 7.50 102.39 7.50Q104.42 7.50 106.01 8.38Q107.59 9.27 108.48 10.87Q109.36 12.47 109.36 14.55M98.34 13.61L106.27 13.61Q106.24 11.97 105.10 10.98Q103.95 10 102.26 10Q100.73 10 99.64 10.97Q98.55 11.95 98.34 13.61M114.72 9.81Q115.37 8.72 116.45 8.11Q117.53 7.50 119.01 7.50L119.01 10.57L118.25 10.57Q116.51 10.57 115.62 11.45Q114.72 12.34 114.72 14.52L114.72 22.06L111.75 22.06L111.75 7.73L114.72 7.73L114.72 9.81M120.23 14.83Q120.23 12.67 121.13 11.01Q122.02 9.35 123.57 8.42Q125.12 7.50 126.99 7.50Q128.68 7.50 129.94 8.16Q131.20 8.83 131.96 9.81L131.96 7.73L134.95 7.73L134.95 22.06L131.96 22.06L131.96 19.93Q131.20 20.94 129.90 21.62Q128.60 22.30 126.94 22.30Q125.09 22.30 123.56 21.35Q122.02 20.40 121.13 18.69Q120.23 16.99 120.23 14.83M131.96 14.88Q131.96 13.40 131.35 12.31Q130.73 11.22 129.75 10.65Q128.76 10.07 127.61 10.07Q126.47 10.07 125.48 10.63Q124.49 11.19 123.88 12.27Q123.27 13.35 123.27 14.83Q123.27 16.31 123.88 17.43Q124.49 18.55 125.50 19.14Q126.50 19.72 127.61 19.72Q128.76 19.72 129.75 19.15Q130.73 18.58 131.35 17.47Q131.96 16.37 131.96 14.88M145.27 10.15L141.78 10.15L141.78 18.08Q141.78 18.89 142.16 19.24Q142.54 19.59 143.45 19.59L145.27 19.59L145.27 22.06L142.93 22.06Q140.93 22.06 139.86 21.13Q138.79 20.19 138.79 18.08L138.79 10.15L137.10 10.15L137.10 7.73L138.79 7.73L138.79 4.17L141.78 4.17L141.78 7.73L145.27 7.73L145.27 10.15M160.61 14.55Q160.61 15.35 160.50 16L149.56 16Q149.69 17.72 150.83 18.76Q151.98 19.80 153.64 19.80Q156.03 19.80 157.02 17.80L160.22 17.80Q159.57 19.77 157.87 21.03Q156.16 22.30 153.64 22.30Q151.59 22.30 149.96 21.37Q148.34 20.45 147.41 18.77Q146.49 17.09 146.49 14.88Q146.49 12.67 147.39 11Q148.28 9.32 149.91 8.41Q151.53 7.50 153.64 7.50Q155.67 7.50 157.25 8.38Q158.84 9.27 159.72 10.87Q160.61 12.47 160.61 14.55M149.58 13.61L157.51 13.61Q157.49 11.97 156.34 10.98Q155.20 10 153.51 10Q151.98 10 150.88 10.97Q149.79 11.95 149.58 13.61"/>
</svg>
